<?xml version="1.0" encoding="utf-8"?>
<!-- Generator: Adobe Illustrator 21.0.2, SVG Export Plug-In . SVG Version: 6.00 Build 0)  -->
<svg version="1.1" id="Layer_1" xmlns="http://www.w3.org/2000/svg" xmlns:xlink="http://www.w3.org/1999/xlink" x="0px" y="0px"
	 viewBox="0 0 512 512" style="enable-background:new 0 0 512 512;" xml:space="preserve">
<style type="text/css">
	.st0{fill:#FFFFFF;}
</style>
<g>
	<g>
		<path class="st0" d="M277,98.3c0,4.1,0,13.6,14.8,17.4V80.9C277,84.7,277,94.2,277,98.3z"/>
	</g>
</g>
<g>
	<g>
		<path class="st0" d="M322.2,149.5v34.9c14.7-3.8,14.8-13.3,14.8-17.4S336.9,153.3,322.2,149.5z"/>
	</g>
</g>
<g>
	<g>
		<path class="st0" d="M307,0c-73.1,0-132.6,59.5-132.6,132.6S233.8,265.2,307,265.2c73.1,0,132.6-59.5,132.6-132.6S380.1,0,307,0z
			 M347.3,127.7c13.1,8.7,20,22.3,20,39.2s-6.9,30.4-20,39.2c-6.9,4.6-15.4,7.7-25.2,9.2v15h-30.4v-15c-9.8-1.5-18.2-4.6-25.2-9.2
			c-13.1-8.7-20-22.3-20-39.2H277c0,4.1,0,13.6,14.8,17.4v-37.6c-9.8-1.5-18.2-4.6-25.2-9.2c-13.1-8.7-20-22.3-20-39.2
			s6.9-30.4,20-39.2c6.9-4.6,15.4-7.7,25.2-9.2V35h30.4v15c9.8,1.5,18.2,4.6,25.2,9.2c13.1,8.7,20,22.3,20,39.2h-30.4
			c0-4.1,0-13.6-14.8-17.4v37.6C332,120,340.4,123.1,347.3,127.7z"/>
	</g>
</g>
<g>
	<g>
		<polygon class="st0" points="0.3,305.7 0.3,512 75.3,512 75.3,481.6 75.3,472.8 75.3,336.1 75.3,307.9 75.3,305.7 		"/>
	</g>
</g>
<g>
	<g>
		<polygon class="st0" points="500.4,354.2 373.9,389 266.1,362.7 273.3,333.1 373.4,357.5 373.7,357.5 373.7,318.4 233.6,283.4 
			105.7,303.2 105.7,305.7 105.7,334 105.7,438.8 105.7,469.4 179.6,461.1 322.9,501.3 511.7,397.2 		"/>
	</g>
</g>
</svg>
