<?xml version="1.0" encoding="utf-8"?>
<!-- Generator: Adobe Illustrator 21.0.0, SVG Export Plug-In . SVG Version: 6.00 Build 0)  -->
<svg version="1.1" id="Calque_1" xmlns="http://www.w3.org/2000/svg" xmlns:xlink="http://www.w3.org/1999/xlink" x="0px" y="0px"
	 viewBox="0 0 654.5 300" style="enable-background:new 0 0 654.5 300;" xml:space="preserve">
<style type="text/css">
	.st0{fill:#AE1B1E;}
	.st1{opacity:0.6;fill:#AE1B1E;enable-background:new    ;}
</style>
<g>
	<path class="st0" d="M86.6,122.2V122c0-7.8-6.4-14.2-14.2-14.2H39.3c-7.8,0-14.2,6.4-14.2,14.2v41.7c0,7.8,6.4,14.2,14.2,14.2H70
		c-7.8,0-14.2,6.4-14.2,14.2v0.1h30.7v-6.5v-7.8v-14.2v-0.1v-0.1H40.1v-41.3L86.6,122.2L86.6,122.2z"/>
	<path class="st1" d="M133.8,107.8h-33.1c-7.8,0-14.2,6.4-14.2,14.2v0.2h46.1v41.3h-46v0.1v0.1v14.2v5.7v8.6h30.7v-0.1
		c0-7.8-6.4-14.2-14.2-14.2h30.7c7.8,0,14.2-6.4,14.2-14.2V122C148,114.2,141.6,107.8,133.8,107.8z"/>
</g>
<g>
	<path class="st0" d="M169.9,123c0-1.9,0.4-3.7,1.1-5.4s1.7-3.1,3-4.4s2.7-2.3,4.4-3s3.5-1.1,5.4-1.1H205v9.2h-21.2
		c-0.6,0-1.2,0.1-1.8,0.4c-0.6,0.2-1,0.6-1.5,1c-0.4,0.4-0.7,0.9-1,1.5c-0.2,0.6-0.4,1.2-0.4,1.8s0.1,1.3,0.4,1.8
		c0.2,0.6,0.6,1.1,1,1.5s0.9,0.7,1.5,1c0.6,0.2,1.2,0.4,1.8,0.4h9.3c1.9,0,3.7,0.4,5.4,1.1s3.2,1.7,4.4,3c1.3,1.3,2.2,2.7,3,4.4
		c0.7,1.7,1.1,3.5,1.1,5.4s-0.4,3.7-1.1,5.4c-0.7,1.7-1.7,3.1-3,4.4c-1.3,1.3-2.7,2.3-4.4,3s-3.5,1.1-5.4,1.1h-20.5v-9.2H193
		c0.6,0,1.2-0.1,1.8-0.4c0.6-0.2,1-0.6,1.5-1c0.4-0.4,0.7-0.9,1-1.5c0.2-0.6,0.4-1.2,0.4-1.8s-0.1-1.2-0.4-1.8c-0.2-0.6-0.6-1-1-1.5
		c-0.4-0.4-0.9-0.7-1.5-1c-0.6-0.2-1.2-0.4-1.8-0.4h-9.3c-1.9,0-3.7-0.4-5.4-1.1c-1.7-0.7-3.1-1.7-4.4-3c-1.3-1.3-2.3-2.7-3-4.4
		C170.3,126.7,169.9,124.9,169.9,123z"/>
	<path class="st0" d="M222.2,155.3H213v-46.2h9.2v18.5h18.5v-18.5h9.2v46.2h-9.2v-18.5h-18.5V155.3z"/>
	<path class="st0" d="M294.9,155.3h-9.3v-9.2h-18.5v9.2H258v-27.7c0-2.6,0.5-5,1.5-7.2s2.3-4.2,3.9-5.9c1.7-1.7,3.6-3,5.9-4
		c2.2-1,4.6-1.5,7.2-1.5s5,0.5,7.2,1.5s4.2,2.3,5.9,4s3,3.6,4,5.9c1,2.2,1.5,4.6,1.5,7.2v27.7H294.9z M285.7,136.9v-9.2
		c0-1.3-0.2-2.5-0.7-3.6s-1.1-2.1-2-2.9s-1.8-1.5-2.9-2s-2.3-0.7-3.6-0.7s-2.5,0.2-3.6,0.7s-2.1,1.1-2.9,2s-1.5,1.8-2,2.9
		s-0.7,2.3-0.7,3.6v9.2H285.7z"/>
	<path class="st0" d="M312.2,155.3h-9.3v-46.2h18.5c1.7,0,3.3,0.2,4.9,0.7c1.6,0.4,3,1.1,4.4,1.9s2.6,1.8,3.7,2.9s2.1,2.4,2.9,3.8
		s1.4,2.8,1.9,4.4c0.4,1.6,0.7,3.2,0.7,4.9c0,1.6-0.2,3.1-0.6,4.6s-1,2.9-1.7,4.3c-0.7,1.4-1.6,2.6-2.7,3.7c-1.1,1.1-2.3,2.1-3.6,3
		l5.1,12.1h-9.8l-4-9.3l-10.3,0.1v9.1H312.2z M312.2,118.4v18.5h9.2c1.3,0,2.5-0.2,3.6-0.7s2.1-1.1,2.9-2s1.5-1.8,2-2.9
		c0.5-1.1,0.7-2.3,0.7-3.6c0-1.3-0.2-2.5-0.7-3.6s-1.1-2.1-2-2.9s-1.8-1.5-2.9-2s-2.3-0.7-3.6-0.7h-9.2V118.4z"/>
	<path class="st0" d="M377.6,155.3H346v-46.2h31.7v9.2h-22.4v9.2h15.2v9.2h-15.2v9.2h22.4v9.4H377.6z"/>
	<path class="st0" d="M393.4,155.3h-9.2v-46.2h18.5c1.7,0,3.3,0.2,4.9,0.7c1.6,0.4,3,1.1,4.4,1.9s2.6,1.8,3.7,2.9s2.1,2.4,2.9,3.8
		s1.4,2.8,1.9,4.4c0.4,1.6,0.7,3.2,0.7,4.9c0,2.5-0.5,4.9-1.4,7.2c-1,2.2-2.3,4.2-4,5.9s-3.6,3-5.9,4c-2.2,1-4.6,1.5-7.2,1.5h-9.3
		V155.3z M393.4,118.4v18.5h9.3c1.3,0,2.5-0.2,3.6-0.7s2.1-1.1,2.9-2s1.5-1.8,2-2.9c0.5-1.1,0.7-2.3,0.7-3.6c0-1.3-0.2-2.5-0.7-3.6
		s-1.1-2.1-2-2.9s-1.8-1.5-2.9-2s-2.3-0.7-3.6-0.7h-9.3V118.4z"/>
	<path class="st0" d="M435.7,155.3h-9.3v-46.2H445c1.7,0,3.3,0.2,4.9,0.7c1.6,0.4,3,1.1,4.4,1.9s2.6,1.8,3.7,2.9s2.1,2.4,2.9,3.8
		s1.4,2.8,1.9,4.4c0.4,1.6,0.7,3.2,0.7,4.9c0,1.6-0.2,3.1-0.6,4.6s-1,2.9-1.7,4.3c-0.7,1.4-1.6,2.6-2.7,3.7c-1.1,1.1-2.3,2.1-3.6,3
		l5.1,12.1h-9.8l-4-9.3l-10.3,0.1v9.1H435.7z M435.7,118.4v18.5h9.2c1.3,0,2.5-0.2,3.6-0.7s2.1-1.1,2.9-2s1.5-1.8,2-2.9
		c0.5-1.1,0.7-2.3,0.7-3.6c0-1.3-0.2-2.5-0.7-3.6s-1.1-2.1-2-2.9s-1.8-1.5-2.9-2s-2.3-0.7-3.6-0.7h-9.2V118.4z"/>
	<path class="st0" d="M514.8,132.4c0,2.2-0.3,4.3-0.9,6.3c-0.6,2-1.4,3.9-2.4,5.7s-2.3,3.4-3.7,4.9c-1.5,1.5-3.1,2.7-4.8,3.8
		c-1.8,1-3.7,1.8-5.7,2.4s-4.2,0.9-6.3,0.9s-4.3-0.3-6.3-0.9c-2-0.6-3.9-1.4-5.7-2.4c-1.8-1-3.4-2.3-4.8-3.8
		c-1.5-1.5-2.7-3.1-3.8-4.9c-1-1.8-1.8-3.7-2.4-5.7s-0.9-4.1-0.9-6.3s0.3-4.3,0.9-6.3s1.4-3.9,2.4-5.7c1-1.8,2.3-3.4,3.8-4.8
		c1.5-1.5,3.1-2.7,4.8-3.7c1.8-1,3.7-1.8,5.7-2.4s4.1-0.9,6.3-0.9s4.3,0.3,6.3,0.9s3.9,1.4,5.7,2.4s3.4,2.3,4.8,3.7
		c1.5,1.5,2.7,3.1,3.7,4.8c1,1.8,1.8,3.7,2.4,5.7C514.5,128.1,514.8,130.2,514.8,132.4z M505.6,132.4c0-2-0.4-3.9-1.2-5.7
		c-0.8-1.8-1.8-3.4-3.1-4.7c-1.3-1.3-2.9-2.4-4.7-3.1c-1.8-0.8-3.7-1.2-5.7-1.2s-4,0.4-5.7,1.2s-3.3,1.8-4.7,3.1s-2.4,2.9-3.2,4.7
		c-0.8,1.8-1.2,3.7-1.2,5.7s0.4,3.9,1.2,5.7s1.8,3.3,3.2,4.7c1.3,1.3,2.9,2.4,4.7,3.2s3.7,1.2,5.7,1.2s3.9-0.4,5.7-1.2
		c1.8-0.8,3.4-1.8,4.7-3.2c1.3-1.3,2.4-2.9,3.1-4.7S505.6,134.4,505.6,132.4z"/>
	<path class="st0" d="M557.9,132.2c0,2.1-0.3,4.2-0.8,6.1c-0.5,2-1.3,3.8-2.3,5.5s-2.2,3.3-3.6,4.7c-1.4,1.4-3,2.6-4.7,3.6
		s-3.6,1.8-5.5,2.3c-2,0.5-4,0.8-6.1,0.8H521V109h13.9c2.1,0,4.2,0.3,6.1,0.8c2,0.5,3.8,1.3,5.5,2.3s3.3,2.2,4.7,3.6s2.6,3,3.6,4.7
		s1.8,3.5,2.3,5.5C557.6,128.1,557.9,130.1,557.9,132.2z M548.6,132.2c0-1.9-0.4-3.7-1.1-5.4c-0.7-1.7-1.7-3.1-3-4.4s-2.7-2.3-4.4-3
		s-3.5-1.1-5.4-1.1h-4.6V146h4.6c1.9,0,3.7-0.4,5.4-1.1c1.7-0.7,3.2-1.7,4.4-3c1.3-1.3,2.2-2.7,3-4.4
		C548.3,135.9,548.6,134.1,548.6,132.2z"/>
</g>
<g>
	<path class="st0" d="M169.9,177.2h2v0.2c-0.1,0.1-0.2,0.2-0.2,0.3s0,0.3,0,0.6v12.5h7.2v1.4h-9V177.2z"/>
	<path class="st0" d="M191.2,182.2c0.8,0.8,1.2,2.2,1.2,4.2v5.8h-1.9v-1.7c-0.7,1.3-1.9,1.9-3.7,1.9c-1.2,0-2.2-0.3-2.9-0.8
		c-0.7-0.6-1-1.3-1-2.2c0-0.8,0.2-1.4,0.7-2s1.2-1,2-1.3s1.8-0.5,2.8-0.5c0.9,0,1.7,0,2.5,0.1c-0.1-1.2-0.4-2.1-1-2.6
		s-1.4-0.8-2.5-0.8c-0.5,0-1.1,0.1-1.6,0.3s-1,0.5-1.4,0.9l-0.8-1.1c1-1,2.3-1.5,3.9-1.5C189.2,181,190.4,181.4,191.2,182.2z
		 M189.8,190.1c0.7-0.7,1.1-1.7,1.1-3c-0.7-0.1-1.5-0.2-2.3-0.2c-1.2,0-2.2,0.2-2.9,0.6c-0.7,0.4-1.1,1-1.1,1.8
		c0,1.2,0.8,1.8,2.3,1.8C188.2,191.1,189.1,190.8,189.8,190.1z"/>
	<path class="st0" d="M210.1,181.2h1.8v2.2c0.2-0.8,0.7-1.4,1.2-1.8c0.6-0.4,1.3-0.6,2.1-0.6s1.6,0.2,2.3,0.6
		c0.7,0.4,1.3,1.1,1.7,1.9c0.4,0.8,0.6,1.9,0.6,3.1c0,1.2-0.2,2.3-0.6,3.2c-0.4,0.9-1,1.6-1.7,2s-1.5,0.7-2.3,0.7
		c-0.7,0-1.3-0.2-1.8-0.5s-1-0.7-1.4-1.3v5.4h-1.8v-14.9H210.1z M217.1,189.9c0.6-0.7,0.9-1.7,0.9-3.3c0-1.4-0.3-2.4-0.8-3.1
		c-0.5-0.7-1.3-1.1-2.3-1.1c-0.9,0-1.7,0.4-2.2,1.1c-0.6,0.8-0.9,1.9-0.9,3.5c0,1.3,0.3,2.2,0.8,2.9s1.2,1,2.2,1
		C215.7,190.9,216.5,190.6,217.1,189.9z"/>
	<path class="st0" d="M224,192.2v-1.4h3.2v-13.2h-3.1v-1.4h4.8v14.6h3.2v1.4L224,192.2L224,192.2z"/>
	<path class="st0" d="M245,182.2c0.8,0.8,1.2,2.2,1.2,4.2v5.8h-1.9v-1.7c-0.7,1.3-1.9,1.9-3.7,1.9c-1.2,0-2.2-0.3-2.9-0.8
		c-0.7-0.6-1-1.3-1-2.2c0-0.8,0.2-1.4,0.7-2s1.2-1,2-1.3s1.8-0.5,2.8-0.5c0.9,0,1.7,0,2.5,0.1c-0.1-1.2-0.4-2.1-1-2.6
		s-1.4-0.8-2.5-0.8c-0.5,0-1.1,0.1-1.6,0.3s-1,0.5-1.4,0.9l-0.8-1.1c1-1,2.3-1.5,3.9-1.5C243,181,244.2,181.4,245,182.2z
		 M243.6,190.1c0.7-0.7,1.1-1.7,1.1-3c-0.7-0.1-1.5-0.2-2.3-0.2c-1.2,0-2.2,0.2-2.9,0.6c-0.7,0.4-1.1,1-1.1,1.8
		c0,1.2,0.8,1.8,2.3,1.8C241.9,191.1,242.9,190.8,243.6,190.1z"/>
	<path class="st0" d="M259.6,191.2c-1.1,0.8-2.2,1.2-3.5,1.2c-1.2,0-2.1-0.4-2.6-1.1c-0.5-0.7-0.8-1.9-0.8-3.6c0-0.3,0-0.7,0-1.4
		l0.2-3.6h-2.4v-1.4h2.5l0.2-2.9l1.9-0.3h0.2v0.1c-0.1,0.2-0.2,0.3-0.3,0.4c-0.1,0.1-0.1,0.3-0.1,0.5l-0.3,2.2h3.6v1.4h-3.7
		l-0.2,3.7c0,0.6,0,1.1,0,1.3c0,1.3,0.1,2.1,0.4,2.6s0.8,0.7,1.4,0.7c0.5,0,0.9-0.1,1.3-0.3s0.9-0.5,1.4-0.8L259.6,191.2z"/>
	<path class="st0" d="M265,190.9c-1-1-1.5-2.4-1.5-4.2c0-1.2,0.2-2.2,0.7-3.1s1.1-1.5,1.8-2c0.8-0.5,1.6-0.7,2.6-0.7
		c1.3,0,2.4,0.4,3.2,1.3c0.8,0.9,1.2,2.2,1.2,3.9c0,0.2,0,0.4,0,0.8h-7.8c0.1,1.3,0.4,2.4,1.1,3c0.7,0.7,1.6,1,2.6,1
		c1.2,0,2.1-0.4,2.8-1.2l1,0.9c-0.9,1.1-2.2,1.7-3.8,1.7S266,191.9,265,190.9z M271.3,185.6c0-1-0.3-1.8-0.8-2.4
		c-0.5-0.6-1.2-0.9-2.1-0.9c-0.8,0-1.5,0.3-2.1,0.8c-0.6,0.6-1,1.4-1.1,2.5L271.3,185.6L271.3,185.6z"/>
	<path class="st0" d="M277.6,185.4v-1.6h8.6v1.6H277.6z"/>
	<path class="st0" d="M299.7,178.9L299.7,178.9c-0.5-0.5-0.9-0.9-1.2-1.1c-0.3-0.2-0.7-0.3-1.3-0.3c-0.8,0-1.3,0.2-1.8,0.7
		c-0.4,0.4-0.6,1.2-0.6,2.2v0.9h3.6v1.4h-3.6v9.6h-1.7v-9.6h-2.4v-1.4h2.4v-0.9c0-1.4,0.4-2.5,1.1-3.2s1.7-1.1,2.9-1.1
		c0.7,0,1.4,0.1,2,0.4s1.1,0.6,1.5,1.1L299.7,178.9z M299.4,178.9C299.4,178.9,299.5,178.9,299.4,178.9c0.2,0,0.2,0,0.2,0l-0.1,0.1
		L299.4,178.9L299.4,178.9z M299.7,178.9c0.1,0.1,0.1,0.2,0.1,0.1C299.7,179,299.7,179,299.7,178.9L299.7,178.9z"/>
	<path class="st0" d="M306.1,191.6c-0.8-0.5-1.4-1.2-1.8-2s-0.6-1.8-0.6-3c0-1.1,0.2-2.1,0.6-3s1-1.5,1.8-2s1.6-0.7,2.6-0.7
		s1.8,0.2,2.6,0.7c0.8,0.5,1.4,1.2,1.8,2c0.4,0.9,0.6,1.8,0.6,3c0,1.1-0.2,2.1-0.6,3s-1,1.5-1.8,2s-1.6,0.7-2.6,0.7
		C307.8,192.4,306.9,192.1,306.1,191.6z M310.4,190.4c0.5-0.4,0.9-0.9,1.2-1.5c0.3-0.6,0.4-1.4,0.4-2.2c0-1.2-0.3-2.3-0.9-3.1
		s-1.4-1.2-2.3-1.2s-1.7,0.4-2.3,1.2s-0.9,1.8-0.9,3.1c0,0.8,0.1,1.5,0.4,2.2c0.3,0.6,0.7,1.2,1.2,1.5s1,0.6,1.7,0.6
		S309.9,190.7,310.4,190.4z"/>
	<path class="st0" d="M326.4,183.5L326.4,183.5c-0.5-0.4-0.9-0.7-1.2-0.8c-0.3-0.1-0.7-0.2-1.1-0.2c-0.6,0-1.1,0.1-1.6,0.4
		c-0.5,0.3-0.9,0.7-1.2,1.3s-0.5,1.3-0.5,2.2v5.8H319v-11h1.8v2c0.3-0.7,0.8-1.3,1.4-1.7s1.3-0.6,2.1-0.6c1.2,0,2.1,0.4,2.9,1.2
		L326.4,183.5z M326.1,183.6C326.1,183.5,326.2,183.5,326.1,183.6c0.1-0.1,0.2,0,0.2,0v0.1L326.1,183.6L326.1,183.6z M326.5,183.6
		c-0.1,0-0.1,0-0.1,0v-0.1C326.5,183.6,326.5,183.6,326.5,183.6z"/>
	<path class="st0" d="M330.5,181.2h1.6v1.1c0.3-0.4,0.6-0.7,1-1c0.4-0.2,0.8-0.4,1.2-0.4c0.5,0,0.9,0.2,1.3,0.5s0.6,0.7,0.7,1.2
		c0.2-0.5,0.5-0.9,1-1.2c0.4-0.3,0.9-0.4,1.5-0.4c0.7,0,1.3,0.3,1.6,0.8c0.4,0.5,0.5,1.2,0.5,2v8.4h-1.6v-7.8c0-0.9-0.1-1.5-0.3-1.8
		c-0.2-0.3-0.4-0.4-0.8-0.4c-0.3,0-0.6,0.1-0.8,0.4s-0.5,0.6-0.7,1s-0.3,0.8-0.3,1.3v7.2h-1.6v-7.6c0-0.9-0.1-1.5-0.3-1.8
		c-0.2-0.3-0.5-0.5-0.9-0.5c-0.2,0-0.5,0.1-0.7,0.3s-0.5,0.5-0.6,0.9c-0.2,0.4-0.2,0.8-0.2,1.4v7.3h-1.6L330.5,181.2L330.5,181.2z"
		/>
	<path class="st0" d="M345.7,190.9c-1-1-1.5-2.4-1.5-4.2c0-1.2,0.2-2.2,0.7-3.1s1.1-1.5,1.8-2c0.8-0.5,1.6-0.7,2.6-0.7
		c1.3,0,2.4,0.4,3.2,1.3c0.8,0.9,1.2,2.2,1.2,3.9c0,0.2,0,0.4,0,0.8h-7.8c0.1,1.3,0.4,2.4,1.1,3c0.7,0.7,1.6,1,2.6,1
		c1.2,0,2.1-0.4,2.8-1.2l1,0.9c-0.9,1.1-2.2,1.7-3.8,1.7S346.6,191.9,345.7,190.9z M352,185.6c0-1-0.3-1.8-0.8-2.4
		c-0.5-0.6-1.2-0.9-2.1-0.9c-0.8,0-1.5,0.3-2.1,0.8c-0.6,0.6-1,1.4-1.1,2.5L352,185.6L352,185.6z"/>
	<path class="st0" d="M373.3,191.8c-0.7-0.4-1.2-1.1-1.7-2c-0.4-0.9-0.6-1.9-0.6-3.2s0.2-2.3,0.7-3.2s1-1.5,1.7-1.9s1.4-0.6,2.2-0.6
		c0.7,0,1.4,0.2,1.9,0.5c0.6,0.3,1,0.8,1.3,1.4v-6.6h1.8v0.2c-0.1,0.1-0.2,0.2-0.2,0.3s0,0.3,0,0.6v13.2c0,0.4,0,0.7,0,0.9
		s0.1,0.5,0.2,0.8H379c-0.1-0.3-0.2-0.5-0.2-0.8c0-0.2,0-0.6,0-0.9c-0.4,0.6-0.8,1.1-1.4,1.4c-0.6,0.3-1.2,0.5-1.9,0.5
		C374.8,192.4,374,192.2,373.3,191.8z M378,189.7c0.5-0.8,0.7-1.8,0.7-3.1s-0.3-2.3-0.8-3.1s-1.3-1.2-2.3-1.2s-1.7,0.4-2.2,1.1
		c-0.5,0.7-0.8,1.7-0.8,2.9c0,1.4,0.3,2.5,0.8,3.3s1.3,1.2,2.3,1.2C376.8,190.9,377.5,190.5,378,189.7z"/>
	<path class="st0" d="M386,190.9c-1-1-1.5-2.4-1.5-4.2c0-1.2,0.2-2.2,0.7-3.1s1.1-1.5,1.8-2c0.8-0.5,1.6-0.7,2.6-0.7
		c1.3,0,2.4,0.4,3.2,1.3c0.8,0.9,1.2,2.2,1.2,3.9c0,0.2,0,0.4,0,0.8h-7.8c0.1,1.3,0.4,2.4,1.1,3c0.7,0.7,1.6,1,2.6,1
		c1.2,0,2.1-0.4,2.8-1.2l1,0.9c-0.9,1.1-2.2,1.7-3.8,1.7S387,191.9,386,190.9z M392.3,185.6c0-1-0.3-1.8-0.8-2.4
		c-0.5-0.6-1.2-0.9-2.1-0.9c-0.8,0-1.5,0.3-2.1,0.8c-0.6,0.6-1,1.4-1.1,2.5L392.3,185.6L392.3,185.6z"/>
	<path class="st0" d="M406.5,187.1c0.6,0.5,0.9,1.1,0.9,1.9c0,1-0.4,1.8-1.2,2.5c-0.8,0.6-1.9,1-3.4,1c-1.9,0-3.4-0.6-4.7-1.7l1-1.6
		l0,0l0,0c0.5,0.6,1,1.1,1.5,1.4s1.2,0.5,2.2,0.5c0.9,0,1.5-0.2,2-0.5s0.7-0.7,0.7-1.3c0-0.5-0.2-0.8-0.6-1.2
		c-0.4-0.3-1.1-0.6-2.2-1c-2.8-0.8-4.1-1.9-4.1-3.4c0-0.8,0.3-1.5,1-2s1.7-0.7,3-0.7c1,0,1.8,0.1,2.5,0.4c0.7,0.3,1.3,0.7,1.9,1.3
		l-1,1.2l0,0c-0.3-0.5-0.8-0.9-1.4-1.2s-1.2-0.4-1.9-0.4c-0.7,0-1.3,0.1-1.7,0.4c-0.4,0.2-0.7,0.6-0.7,1s0.2,0.8,0.7,1.1
		c0.4,0.3,1.3,0.7,2.4,1C405,186.1,406,186.6,406.5,187.1z M399.1,188.9C399.1,188.9,399.2,188.9,399.1,188.9v0.1V188.9z M399.4,189
		c0,0.1-0.1,0.1-0.2,0l0.1-0.1L399.4,189L399.4,189z M406.1,184L406.1,184h-0.2C405.9,183.9,406,183.9,406.1,184z M406.2,184
		L406.2,184c-0.1,0-0.1,0-0.1,0l0.1-0.1C406.2,184,406.2,184,406.2,184z"/>
	<path class="st0" d="M424.1,181.2h1.5l1.8,8.8l1.9-7.8h1.1l2.3,7.8c0.4-3,0.7-5,0.8-5.9c0.1-0.9,0.2-1.8,0.2-2.5v-0.4h1.6
		c-0.5,3.7-1.1,7.4-1.8,11h-1.6l-2-7.1l-1.9,7.1h-1.6L424.1,181.2z"/>
	<path class="st0" d="M439.8,190.9c-1-1-1.5-2.4-1.5-4.2c0-1.2,0.2-2.2,0.7-3.1s1.1-1.5,1.8-2c0.8-0.5,1.6-0.7,2.6-0.7
		c1.3,0,2.4,0.4,3.2,1.3c0.8,0.9,1.2,2.2,1.2,3.9c0,0.2,0,0.4,0,0.8H440c0.1,1.3,0.4,2.4,1.1,3c0.7,0.7,1.6,1,2.6,1
		c1.2,0,2.1-0.4,2.8-1.2l1,0.9c-0.9,1.1-2.2,1.7-3.8,1.7S440.7,191.9,439.8,190.9z M446.1,185.6c0-1-0.3-1.8-0.8-2.4
		c-0.5-0.6-1.2-0.9-2.1-0.9c-0.8,0-1.5,0.3-2.1,0.8c-0.6,0.6-1,1.4-1.1,2.5L446.1,185.6L446.1,185.6z"/>
	<path class="st0" d="M455.1,192c-0.6-0.3-1-0.7-1.4-1.3l-0.6,1.4H452v-16h2v0.2c-0.1,0.1-0.2,0.2-0.2,0.3s0,0.3,0,0.6v5.6
		c0.4-0.6,0.8-1.1,1.4-1.4c0.6-0.4,1.2-0.5,1.8-0.5c1.4,0,2.5,0.5,3.3,1.4c0.8,1,1.2,2.4,1.2,4.2c0,1.2-0.2,2.3-0.6,3.2
		s-1,1.6-1.7,2s-1.4,0.7-2.2,0.7C456.3,192.4,455.7,192.3,455.1,192z M458.9,189.9c0.6-0.7,0.9-1.7,0.9-3.2c0-1.4-0.3-2.5-0.8-3.2
		s-1.3-1.1-2.2-1.1c-0.9,0-1.6,0.4-2.2,1.2s-0.8,1.8-0.8,3.1c0,2.8,1,4.2,3,4.2C457.6,190.9,458.3,190.6,458.9,189.9z"/>
	<path class="st0" d="M465.7,185.4v-1.6h8.6v1.6H465.7z"/>
	<path class="st0" d="M487.2,187.1c0.6,0.5,0.9,1.1,0.9,1.9c0,1-0.4,1.8-1.2,2.5c-0.8,0.6-1.9,1-3.4,1c-1.9,0-3.4-0.6-4.7-1.7l1-1.6
		l0,0l0,0c0.5,0.6,1,1.1,1.5,1.4s1.2,0.5,2.2,0.5c0.9,0,1.5-0.2,2-0.5s0.7-0.7,0.7-1.3c0-0.5-0.2-0.8-0.6-1.2
		c-0.4-0.3-1.1-0.6-2.2-1c-2.8-0.8-4.1-1.9-4.1-3.4c0-0.8,0.3-1.5,1-2s1.7-0.7,3-0.7c1,0,1.8,0.1,2.5,0.4c0.7,0.3,1.3,0.7,1.9,1.3
		l-1,1.2l0,0c-0.3-0.5-0.8-0.9-1.4-1.2s-1.2-0.4-1.9-0.4c-0.7,0-1.3,0.1-1.7,0.4c-0.4,0.2-0.7,0.6-0.7,1s0.2,0.8,0.7,1.1
		c0.4,0.3,1.3,0.7,2.4,1C485.6,186.1,486.6,186.6,487.2,187.1z M479.8,188.9L479.8,188.9v0.1C479.8,189,479.7,188.9,479.8,188.9z
		 M480.1,189c0,0.1-0.1,0.1-0.2,0l0.1-0.1L480.1,189L480.1,189z M486.7,184L486.7,184h-0.2C486.5,183.9,486.6,183.9,486.7,184z
		 M486.9,184C486.9,184,486.8,184,486.9,184c-0.1,0-0.1,0-0.1,0l0.1-0.1C486.9,184,486.9,184,486.9,184z"/>
	<path class="st0" d="M493.5,190.9c-1-1-1.5-2.4-1.5-4.2c0-1.2,0.2-2.2,0.7-3.1s1.1-1.5,1.8-2c0.8-0.5,1.6-0.7,2.6-0.7
		c1.3,0,2.4,0.4,3.2,1.3c0.8,0.9,1.2,2.2,1.2,3.9c0,0.2,0,0.4,0,0.8h-7.8c0.1,1.3,0.4,2.4,1.1,3c0.7,0.7,1.6,1,2.6,1
		c1.2,0,2.1-0.4,2.8-1.2l1,0.9c-0.9,1.1-2.2,1.7-3.8,1.7S494.5,191.9,493.5,190.9z M499.8,185.6c0-1-0.3-1.8-0.8-2.4
		c-0.5-0.6-1.2-0.9-2.1-0.9c-0.8,0-1.5,0.3-2.1,0.8c-0.6,0.6-1,1.4-1.1,2.5L499.8,185.6L499.8,185.6z M497,180l-0.9-0.6l2-3.6l1.3,1
		L497,180z"/>
	<path class="st0" d="M514.6,183.5L514.6,183.5c-0.5-0.4-0.9-0.7-1.2-0.8s-0.7-0.2-1.1-0.2c-0.6,0-1.1,0.1-1.6,0.4
		c-0.5,0.3-0.9,0.7-1.2,1.3s-0.5,1.3-0.5,2.2v5.8h-1.8v-11h1.8v2c0.3-0.7,0.8-1.3,1.4-1.7s1.3-0.6,2.1-0.6c1.2,0,2.1,0.4,2.9,1.2
		L514.6,183.5z M514.3,183.6C514.3,183.5,514.3,183.5,514.3,183.6c0.1-0.1,0.2,0,0.2,0v0.1L514.3,183.6L514.3,183.6z M514.6,183.6
		C514.5,183.6,514.5,183.6,514.6,183.6l-0.1-0.1C514.7,183.6,514.7,183.6,514.6,183.6z"/>
	<path class="st0" d="M520.2,192.2v-1.4h2.8v-8.2h-2.7v-1.4h4.4v9.6h2.6v1.4L520.2,192.2L520.2,192.2z M522.9,178.5
		c-0.2-0.2-0.4-0.5-0.4-0.9s0.1-0.6,0.3-0.9c0.2-0.2,0.5-0.4,0.9-0.4c0.3,0,0.6,0.1,0.9,0.4s0.4,0.5,0.4,0.9s-0.1,0.6-0.4,0.9
		s-0.5,0.4-0.9,0.4S523.1,178.8,522.9,178.5z"/>
	<path class="st0" d="M533.8,190.9c-1-1-1.5-2.4-1.5-4.2c0-1.2,0.2-2.2,0.7-3.1s1.1-1.5,1.8-2c0.8-0.5,1.6-0.7,2.6-0.7
		c1.3,0,2.4,0.4,3.2,1.3c0.8,0.9,1.2,2.2,1.2,3.9c0,0.2,0,0.4,0,0.8H534c0.1,1.3,0.4,2.4,1.1,3c0.7,0.7,1.6,1,2.6,1
		c1.2,0,2.1-0.4,2.8-1.2l1,0.9c-0.9,1.1-2.2,1.7-3.8,1.7S534.8,191.9,533.8,190.9z M540.1,185.6c0-1-0.3-1.8-0.8-2.4
		c-0.5-0.6-1.2-0.9-2.1-0.9c-0.8,0-1.5,0.3-2.1,0.8c-0.6,0.6-1,1.4-1.1,2.5L540.1,185.6L540.1,185.6z"/>
	<path class="st0" d="M554.4,187.1c0.6,0.5,0.9,1.1,0.9,1.9c0,1-0.4,1.8-1.2,2.5c-0.8,0.6-1.9,1-3.4,1c-1.9,0-3.4-0.6-4.7-1.7l1-1.6
		l0,0l0,0c0.5,0.6,1,1.1,1.5,1.4s1.2,0.5,2.2,0.5c0.9,0,1.5-0.2,2-0.5s0.7-0.7,0.7-1.3c0-0.5-0.2-0.8-0.6-1.2
		c-0.4-0.3-1.1-0.6-2.2-1c-2.8-0.8-4.1-1.9-4.1-3.4c0-0.8,0.3-1.5,1-2s1.7-0.7,3-0.7c1,0,1.8,0.1,2.5,0.4c0.7,0.3,1.3,0.7,1.9,1.3
		l-1,1.2l0,0c-0.3-0.5-0.8-0.9-1.4-1.2c-0.6-0.3-1.2-0.4-1.9-0.4s-1.3,0.1-1.7,0.4c-0.4,0.2-0.7,0.6-0.7,1s0.2,0.8,0.7,1.1
		c0.4,0.3,1.3,0.7,2.4,1C552.8,186.1,553.8,186.6,554.4,187.1z M547,188.9L547,188.9v0.1C547,189,546.9,188.9,547,188.9z M547.3,189
		c0,0.1-0.1,0.1-0.2,0l0.1-0.1L547.3,189L547.3,189z M553.9,184L553.9,184h-0.2C553.7,183.9,553.8,183.9,553.9,184z M554.1,184
		C554.1,184,554,184,554.1,184C554,184,554,184,554.1,184v-0.1C554.1,184,554.1,184,554.1,184z"/>
</g>
</svg>
