<?xml version="1.0" encoding="utf-8"?>
<!-- Generator: Adobe Illustrator 21.0.0, SVG Export Plug-In . SVG Version: 6.00 Build 0)  -->
<svg version="1.1" id="Calque_1" xmlns="http://www.w3.org/2000/svg" xmlns:xlink="http://www.w3.org/1999/xlink" x="0px" y="0px"
	 viewBox="0 0 122.8 84.3" style="enable-background:new 0 0 122.8 84.3;" xml:space="preserve">
<style type="text/css">
	.st0{fill:#D35353;}
	.st1{fill:#AE1B1E;}
</style>
<g>
	<path class="st0" d="M61.4,14.4v-0.2C61.4,6.4,55,0,47.2,0H14.2C6.4,0,0,6.4,0,14.2v41.7c0,7.8,6.4,14.2,14.2,14.2h30.7
		c-7.8,0-14.2,6.4-14.2,14.2v0.1h30.7v-6.5v-7.8V55.9v-0.1v-0.1H15V14.4H61.4z"/>
	<path class="st1" d="M108.7,0H75.6c-7.8,0-14.2,6.4-14.2,14.2v0.2h46.1v41.3H61.4v0.1v0.1v14.2v5.7v8.6h30.7v-0.1
		c0-7.8-6.4-14.2-14.2-14.2h30.7c7.8,0,14.2-6.4,14.2-14.2V14.2C122.8,6.4,116.5,0,108.7,0z"/>
</g>
<text transform="matrix(1 0 0 1 151.584 53.0843)" style="display:none;fill:#CC5858; font-family:'Righteous-Regular'; font-size:72px;">SHAREPROD</text>
<text transform="matrix(1 0 0 1 151.584 84.3497)" style="display:none;fill:#AE1B1E; font-family:'Serenity-ExtraLight'; font-size:24px;">La plateforme des web-séries</text>
</svg>
